<svg xmlns="http://www.w3.org/2000/svg" xmlns:xlink="http://www.w3.org/1999/xlink" width="73" height="73" viewBox="0 0 73 73"><defs><style>.a{fill:#ec8161;}.b{clip-path:url(#a);}</style><clipPath id="a"><circle class="a" cx="36.5" cy="36.5" r="36.5" transform="translate(1521 973)"/></clipPath></defs><g class="b" transform="translate(-1521 -973)"><g transform="translate(1521 973)"><path class="a" d="M73,12.167A12.61,12.61,0,0,0,60.833,0H12.167A12.61,12.61,0,0,0,0,12.167V60.833A12.61,12.61,0,0,0,12.167,73H36.5V45.422H27.578V33.256H36.5v-4.74c0-8.175,6.138-15.538,13.688-15.538h9.835V25.144H50.188c-1.076,0-2.332,1.307-2.332,3.264v4.847H60.022V45.422H47.856V73H60.833A12.61,12.61,0,0,0,73,60.833Z"/></g></g></svg>