<svg xmlns="http://www.w3.org/2000/svg" xmlns:xlink="http://www.w3.org/1999/xlink" width="73" height="73" viewBox="0 0 73 73"><defs><clipPath id="a"><circle cx="36.5" cy="36.5" r="36.5" transform="translate(1609 973)" fill="#ec8161"/></clipPath></defs><g transform="translate(-1609 -973)" clip-path="url(#a)"><g transform="translate(1609 973)"><path d="M68.1,19.072A36.341,36.341,0,0,0,54.821,5.788,35.7,35.7,0,0,0,36.5.893a35.7,35.7,0,0,0-18.321,4.9A36.337,36.337,0,0,0,4.9,19.072,35.7,35.7,0,0,0,0,37.392,35.472,35.472,0,0,0,6.962,58.849,35.748,35.748,0,0,0,24.951,72.037a2.127,2.127,0,0,0,1.9-.332,1.859,1.859,0,0,0,.618-1.425q0-.143-.024-2.566t-.024-4.229l-1.093.189a13.944,13.944,0,0,1-2.638.166,20.1,20.1,0,0,1-3.3-.333A7.381,7.381,0,0,1,17.2,62.083a6.03,6.03,0,0,1-2.091-2.922l-.475-1.094a11.875,11.875,0,0,0-1.5-2.423,5.735,5.735,0,0,0-2.067-1.806L10.74,53.6a3.489,3.489,0,0,1-.618-.571,2.607,2.607,0,0,1-.427-.665q-.143-.333.238-.547a3.082,3.082,0,0,1,1.378-.212l.95.142a6.937,6.937,0,0,1,2.353,1.14,7.671,7.671,0,0,1,2.3,2.471,8.378,8.378,0,0,0,2.638,2.971,5.6,5.6,0,0,0,3.113,1.021,13.515,13.515,0,0,0,2.709-.237,9.452,9.452,0,0,0,2.139-.713,7.7,7.7,0,0,1,2.328-4.9,32.542,32.542,0,0,1-4.871-.856,19.4,19.4,0,0,1-4.467-1.854,12.794,12.794,0,0,1-3.826-3.184,15.3,15.3,0,0,1-2.495-4.99,23.73,23.73,0,0,1-.974-7.129A13.862,13.862,0,0,1,16.966,25.7Q15.208,21.375,17.3,16q1.378-.428,4.087.641a28.575,28.575,0,0,1,3.968,1.83q1.26.759,2.02,1.283a34.323,34.323,0,0,1,18.251,0l1.806-1.14A25.577,25.577,0,0,1,51.8,16.528a6.228,6.228,0,0,1,3.851-.522q2.138,5.371.379,9.695a13.864,13.864,0,0,1,3.755,9.791,24,24,0,0,1-.974,7.152,14.708,14.708,0,0,1-2.518,4.99,13.286,13.286,0,0,1-3.85,3.16,19.433,19.433,0,0,1-4.468,1.854,32.508,32.508,0,0,1-4.871.857q2.47,2.138,2.471,6.748V70.279a1.893,1.893,0,0,0,.595,1.425,2.064,2.064,0,0,0,1.877.332A35.743,35.743,0,0,0,66.038,58.848,35.479,35.479,0,0,0,73,37.39,35.732,35.732,0,0,0,68.1,19.072Z" fill="#ec8161"/></g></g></svg>