<svg xmlns="http://www.w3.org/2000/svg" xmlns:xlink="http://www.w3.org/1999/xlink" width="73" height="73" viewBox="0 0 73 73"><defs><clipPath id="a"><circle cx="36.5" cy="36.5" r="36.5" transform="translate(1697 973)" fill="#ec8161"/></clipPath></defs><g transform="translate(-1697 -973)" clip-path="url(#a)"><g transform="translate(1697 973)"><path d="M50.188,0H22.813A22.815,22.815,0,0,0,0,22.813V50.188A22.815,22.815,0,0,0,22.813,73H50.188A22.815,22.815,0,0,0,73,50.188V22.813A22.815,22.815,0,0,0,50.188,0ZM66.156,50.188A15.986,15.986,0,0,1,50.188,66.156H22.813A15.986,15.986,0,0,1,6.844,50.188V22.813A15.986,15.986,0,0,1,22.813,6.844H50.188A15.986,15.986,0,0,1,66.156,22.813Z" fill="#ec8161"/><path d="M36.5,18.25A18.25,18.25,0,1,0,54.75,36.5,18.251,18.251,0,0,0,36.5,18.25Zm0,29.656A11.406,11.406,0,1,1,47.906,36.5,11.422,11.422,0,0,1,36.5,47.906Z" fill="#ec8161"/><circle cx="2.432" cy="2.432" r="2.432" transform="translate(53.687 14.449)" fill="#ec8161"/></g></g></svg>